<?xml version="1.0"?>
<svg version="1.1" xmlns="http://www.w3.org/2000/svg" width="360" height="200"><path fill="#ffffff" d="M16.936,126.312l2.728,0l0-18.612q0-3.696,2.816-6.512t6.512-2.816q3.608,0,6.512,2.816q2.772,2.772,2.772,6.512l0,18.612l2.816,0l0-18.612q0-3.784,2.816-6.512q2.816-2.816,6.468-2.816q3.696,0,6.512,2.816t2.816,6.512l0,18.612l2.728,0l0-18.612q0-5.016-3.52-8.536t-8.536-3.52q-3.3,0-6.204,1.804q-2.948,1.848-4.224,4.708q-1.716-2.948-4.62-4.708q-3.036-1.804-6.336-1.804q-4.972,0-8.492,3.52q-3.564,3.564-3.564,8.536l0,18.612z M69.64096,126.444l2.772,0l0-30.932l-2.772,0l0,30.932z M93.92192,98.24l8.492,0l0-2.772l-8.492,0q-6.336,0-10.736,4.488q-4.444,4.532-4.444,11.308q0,6.292,4.444,10.736t10.736,4.444l5.632,0l2.86,0l0-2.816l0-14.08l-2.86,0l-6.732,0l0,2.816l6.732,0l0,11.264l-5.632,0q-5.016,0-8.668-3.652t-3.652-8.712q0-5.5,3.652-9.284q3.608-3.74,8.668-3.74z M133.20688,95.556l-2.772,0l0,18.788q0,4.048-2.816,6.776q-2.772,2.64-6.6,2.64q-4.18,0-6.732-2.64q-2.596-2.684-2.596-6.776l0-18.788l-2.816,0l0,18.788q0,5.016,3.432,8.536q3.476,3.608,8.712,3.608q4.884,0,8.58-3.608q3.608-3.52,3.608-8.536l0-18.788z M142.48384,117.952q0-2.112,1.496-3.828q1.496-1.804,3.608-1.804l0.572,0l8.228,0l0-2.728l-8.228,0l-0.572,0q-2.244-0.44-3.674-1.936t-1.43-3.564q0-2.596,1.518-4.114t4.158-1.518l14.96,0l0-2.772l-14.96,0q-3.388,0-5.896,2.508q-2.508,2.42-2.508,5.896q0,2.2,0.836,4.004t2.464,2.596q-1.628,1.188-2.464,3.124t-0.836,4.136q0,3.432,2.508,5.852q2.552,2.552,5.896,2.552l14.96,0l0-2.904l-14.96,0q-2.64,0-4.158-1.496t-1.518-4.004z M168.8768,126.488l21.516,0l0-2.244l-18.788,0l0-28.644l-2.728,0l0,30.888z M213.17072,98.284l20.988,0l0-2.728l-23.716,0l0,0.528l0,30.316l2.728,0l0-13.728l11.132,0l0-2.86l-11.132,0l0-11.528z M263.54368,95.556l-2.772,0l0,18.788q0,4.048-2.816,6.776q-2.772,2.64-6.6,2.64q-4.18,0-6.732-2.64q-2.596-2.684-2.596-6.776l0-18.788l-2.816,0l0,18.788q0,5.016,3.432,8.536q3.476,3.608,8.712,3.608q4.884,0,8.58-3.608q3.608-3.52,3.608-8.536l0-18.788z M270.18064,126.4l2.728,0l0-18.656q0-3.696,2.816-6.6q2.816-2.816,6.512-2.816t6.6,2.816q2.816,2.904,2.816,6.6l0,18.656l2.728,0l0-18.656q0-5.016-3.564-8.58t-8.58-3.564q-4.928,0-8.492,3.564t-3.564,8.58l0,18.656z M315.7136,98.24l8.492,0l0-2.772l-8.492,0q-6.336,0-10.736,4.488q-4.444,4.532-4.444,11.308q0,6.292,4.444,10.736t10.736,4.444l5.632,0l2.86,0l0-2.816l0-14.08l-2.86,0l-6.732,0l0,2.816l6.732,0l0,11.264l-5.632,0q-5.016,0-8.668-3.652t-3.652-8.712q0-5.5,3.652-9.284q3.608-3.74,8.668-3.74z"/><path fill="#4996cc" d=""/></svg>
